<?xml version="1.0" encoding="UTF-8"?>
<svg width="17px" height="19px" viewBox="0 0 17 19" version="1.1" xmlns="http://www.w3.org/2000/svg" xmlns:xlink="http://www.w3.org/1999/xlink">
    <!-- Generator: Sketch 51 (57462) - http://www.bohemiancoding.com/sketch -->
    <title>dribbble</title>
    <desc>Created with Sketch.</desc>
    <defs></defs>
    <g id="Main" stroke="none" stroke-width="1" fill="none" fill-rule="evenodd">
        <g id="Desktop-HD" transform="translate(-225.000000, -3944.000000)" fill="#FFFFFF" fill-rule="nonzero">
            <g id="Footer" transform="translate(0.000000, 3421.000000)">
                <g id="Social" transform="translate(132.000000, 523.000000)">
                    <g id="dribbble" transform="translate(93.000000, 0.000000)">
                        <path d="M8.5,0 C3.81307258,0 0,4.26166935 0,9.5 C0,14.7383306 3.81307258,19 8.5,19 C13.1869274,19 17,14.7383306 17,9.5 C17,4.26166935 13.1869274,0 8.5,0 Z M14.1199395,4.38095565 C15.131131,5.76175 15.7434738,7.5204375 15.7594456,9.43568347 C15.5200746,9.37910484 13.1197157,8.83496169 10.7039335,9.17451008 C10.5067883,8.63664919 10.3207137,8.1634879 10.0658508,7.5804254 C12.7502399,6.3555 13.966871,4.61236492 14.1199395,4.38095565 Z M13.3128165,3.44260081 C13.1822319,3.65048992 12.0893306,5.29226613 9.50766129,6.37377218 C8.31793548,3.93073992 6.99930444,1.92378831 6.79862903,1.62346573 C9.10103226,1.00316935 11.5273024,1.67211492 13.3128165,3.44260081 Z M5.4133004,2.16891129 C5.60472177,2.4623004 6.90210282,4.47174194 8.10509274,6.86179637 C4.70896573,7.86975403 1.71775403,7.85523589 1.39304032,7.85044758 C1.86383065,5.3324496 3.38210887,3.23969153 5.4133004,2.16891129 Z M1.23969758,9.51237298 C1.23969758,9.42940121 1.24117137,9.3468125 1.24339919,9.26441532 C1.56105242,9.27169355 5.07936694,9.32237298 8.70509677,8.10962903 C8.91293548,8.56425 9.11148589,9.02572782 9.29372177,9.48670766 C6.66835282,10.3131694 4.28304032,12.6863306 3.10616734,14.9379456 C1.94656855,13.4993851 1.23969758,11.5965121 1.23969758,9.51237298 Z M4.04356653,15.913879 C4.80195161,14.1811633 6.86015121,11.9444879 9.78720161,10.8284677 C10.8065161,13.7889052 11.2280544,16.2700141 11.3360181,16.9819395 C9.00153427,18.0933246 6.194375,17.7884052 4.04356653,15.913879 Z M12.5565907,16.2390625 C12.4821815,15.7454456 12.0957399,13.3700242 11.1461391,10.4535242 C13.4212601,10.0464798 15.420131,10.7127823 15.6685161,10.8003891 C15.3448992,13.0582097 14.185369,15.008123 12.5565907,16.2390625 Z" id="Shape"></path>
                    </g>
                </g>
            </g>
        </g>
    </g>
</svg>