<?xml version="1.0" encoding="UTF-8"?>
<!-- <svg width="1440px" height="579px" viewBox="0 0 1440 579" version="1.1" xmlns="http://www.w3.org/2000/svg" xmlns:xlink="http://www.w3.org/1999/xlink">
    <title>Gradient Background Shape</title>
    <defs>
        <linearGradient x1="0%" y1="100%" x2="100%" y2="0%" id="linearGradient-1">
            <stop stop-color="#F38498" offset="0%"></stop>
            <stop stop-color="#E9916F" offset="51.5828215%"></stop>
            <stop stop-color="#FFB14F" offset="100%"></stop>
        </linearGradient>
    </defs>
    <g id="Main" stroke="none" stroke-width="1" fill="none" fill-rule="evenodd">
        <g id="Desktop-HD" transform="translate(0.000000, -3421.000000)" fill="url(#linearGradient-1)" fill-rule="nonzero">
            <g id="Footer" transform="translate(0.000000, 3421.000000)">
                <path d="M0,0 C50.2082753,52.28125 106.122338,78.421875 167.742188,78.421875 C278.449132,78.421875 393.511632,6.2941975e-15 521.335938,0 C820.382812,0 820.382812,446.234375 1280.60937,446.234375 C1332.64817,446.234375 1385.77838,424.515625 1440,381.078125 L1440,579 L0,579 L0,0 Z" id="Rectangle-4"></path>
            </g>
        </g>
    </g>
</svg> -->

<svg width="100vw" height="600px" viewBox="0 0 100% 600" version="1.1" xmlns="http://www.w3.org/2000/svg" xmlns:xlink="http://www.w3.org/1999/xlink">
    <title>Gradient Background Shape</title>
    <defs>
        <linearGradient x1="0%" y1="100%" x2="100%" y2="0%" id="gradient">
            <stop stop-color="#F38498" offset="0%"></stop>
            <stop stop-color="#E9916F" offset="50%"></stop>
            <stop stop-color="#FFB14F" offset="100%"></stop>
        </linearGradient>
    </defs>
    <g id="Main" stroke="none" stroke-width="1" fill="none" fill-rule="evenodd">
        <g id="main-group" fill="url(#gradient)" fill-rule="nonzero">
            <path
                transform="scale(2 1)"
                d="M0,0 C50.20,52.28 106.12,78.42 167.74,78.42
                   C278.44,78.42 393.51,6.29 521.33,0
                   C820.38,0 820.38,446.23 1280.60,446.23
                   C1332.64,446.23 1385.77,424.51 1440,381.07
                   L1440,600
                   L0,600
                   L0,0 Z" id="Rectangle-4"></path>
        </g>
    </g>
</svg>