<?xml version="1.0" encoding="UTF-8"?>
<svg width="20px" height="17px" viewBox="0 0 20 17" version="1.1" xmlns="http://www.w3.org/2000/svg" xmlns:xlink="http://www.w3.org/1999/xlink">
    <!-- Generator: Sketch 51 (57462) - http://www.bohemiancoding.com/sketch -->
    <title>Shape</title>
    <desc>Created with Sketch.</desc>
    <defs></defs>
    <g id="Main" stroke="none" stroke-width="1" fill="none" fill-rule="evenodd">
        <g id="Desktop-HD" transform="translate(-223.000000, -648.000000)" fill="#D4D4E1" fill-rule="nonzero">
            <g id="Menu-Open" transform="translate(75.000000, 0.000000)">
                <g id="Social" transform="translate(103.000000, 647.000000)">
                    <g id="github-alt" transform="translate(45.000000, 1.000000)">
                        <path d="M7.75416667,11.71814 C7.75416667,12.6433728 7.3,14.1573901 6.225,14.1573901 C5.15,14.1573901 4.69583333,12.6433728 4.69583333,11.71814 C4.69583333,10.7929072 5.15,9.27888984 6.225,9.27888984 C7.3,9.27888984 7.75416667,10.7929072 7.75416667,11.71814 Z M20,9.4825296 C20,10.8947271 19.8666667,12.3910366 19.2708333,13.6881333 C17.6916667,17.079178 13.35,16.9994928 10.2416667,16.9994928 C7.08333333,16.9994928 2.48333333,17.1190205 0.841666667,13.6881333 C0.233333333,12.4043174 0,10.8947271 0,9.4825296 C0,7.62763702 0.579166667,5.87456432 1.72916667,4.45351297 C1.5125,3.75405467 1.40833333,3.01918076 1.40833333,2.29316075 C1.40833333,1.34136623 1.6125,0.863255496 2.01666667,0 C3.90416667,0 5.1125,0.398425613 6.55,1.59370245 C7.75833333,1.28824282 9,1.15100733 10.2458333,1.15100733 C11.3708333,1.15100733 12.5041667,1.27938891 13.5958333,1.55828684 C15.0125,0.376290857 16.2208333,0 18.0875,0 C18.4958333,0.863255496 18.6958333,1.34136623 18.6958333,2.29316075 C18.6958333,3.01918076 18.5875,3.74077381 18.375,4.42695126 C19.5208333,5.86128347 20,7.62763702 20,9.4825296 Z M17.3208333,11.71814 C17.3208333,9.77470838 16.2083333,8.06147824 14.2583333,8.06147824 C13.4708333,8.06147824 12.7166667,8.21199459 11.925,8.32709532 C11.3041667,8.4289152 10.6833333,8.46875776 10.0458333,8.46875776 C9.4125,8.46875776 8.79166667,8.4289152 8.16666667,8.32709532 C7.3875,8.21199459 6.625,8.06147824 5.83333333,8.06147824 C3.88333333,8.06147824 2.77083333,9.77470838 2.77083333,11.71814 C2.77083333,15.6050032 6.12083333,16.2026416 9.0375,16.2026416 L11.0458333,16.2026416 C13.975,16.2026416 17.3208333,15.6094301 17.3208333,11.71814 Z M13.8791667,9.27888984 C12.8041667,9.27888984 12.35,10.7929072 12.35,11.71814 C12.35,12.6433728 12.8041667,14.1573901 13.8791667,14.1573901 C14.9541667,14.1573901 15.4083333,12.6433728 15.4083333,11.71814 C15.4083333,10.7929072 14.9541667,9.27888984 13.8791667,9.27888984 Z" id="Shape"></path>
                    </g>
                </g>
            </g>
        </g>
    </g>
</svg>