<?xml version="1.0" encoding="UTF-8"?>
<svg width="16px" height="18px" viewBox="0 0 16 18" version="1.1" xmlns="http://www.w3.org/2000/svg" xmlns:xlink="http://www.w3.org/1999/xlink">
    <!-- Generator: Sketch 51 (57462) - http://www.bohemiancoding.com/sketch -->
    <title>Shape</title>
    <desc>Created with Sketch.</desc>
    <defs></defs>
    <g id="Main" stroke="none" stroke-width="1" fill="none" fill-rule="evenodd">
        <g id="Desktop-HD" transform="translate(-178.000000, -648.000000)" fill="#D4D4E1" fill-rule="nonzero">
            <g id="Menu-Open" transform="translate(75.000000, 0.000000)">
                <g id="Social" transform="translate(103.000000, 647.000000)">
                    <g id="linkedin-in" transform="translate(0.000000, 1.000000)">
                        <path d="M3.58134345,18 L0.264226735,18 L0.264226735,5.98258929 L3.58134345,5.98258929 L3.58134345,18 Z M1.92099978,4.34330357 C0.860522205,4.34330357 0,3.35491071 0,2.16160714 C0,0.968303571 0.860522205,0 1.92099978,0 C2.98147735,0 3.84199955,0.968303571 3.84199955,2.16160714 C3.84199955,3.35491071 2.98147735,4.34330357 1.92099978,4.34330357 Z M15.9964294,18 L12.6864539,18 L12.6864539,12.15 C12.6864539,10.7558036 12.6614595,8.96785714 10.9618389,8.96785714 C9.23722383,8.96785714 8.9729971,10.4825893 8.9729971,12.0495536 L8.9729971,18 L5.65945102,18 L5.65945102,5.98258929 L8.84088373,5.98258929 L8.84088373,7.621875 L8.88730194,7.621875 C9.33006025,6.67767857 10.4119616,5.68125 12.0258871,5.68125 C15.3822807,5.68125 16,8.16830357 16,11.3986607 L16,18 L15.9964294,18 Z" id="Shape"></path>
                    </g>
                </g>
            </g>
        </g>
    </g>
</svg>