<?xml version="1.0" encoding="UTF-8"?>
<svg width="50px" height="50px" viewBox="0 0 50 50" version="1.1" xmlns="http://www.w3.org/2000/svg" xmlns:xlink="http://www.w3.org/1999/xlink">
    <!-- Generator: Sketch 51 (57462) - http://www.bohemiancoding.com/sketch -->
    <title>Logo White</title>
    <desc>Created with Sketch.</desc>
    <defs></defs>
    <g id="Main" stroke="none" stroke-width="1" fill="none" fill-rule="evenodd">
        <g id="iPad" transform="translate(-360.000000, -3177.000000)" fill="#FFFFFF">
            <g id="Footer" transform="translate(0.000000, 2709.000000)">
                <g id="Logo-White" transform="translate(360.000000, 468.000000)">
                    <g id="Group-40" transform="translate(0.000000, 0.543478)">
                        <path d="M34.4253297,34.1765761 C29.1082967,39.4358152 20.4846703,39.4358152 15.1676374,34.1765761 C9.84895604,28.915163 9.8506044,20.3874457 15.1676374,15.12875 C20.4874176,9.86733696 29.1060989,9.86733696 34.4253297,15.12875 C35.6703846,16.3597283 35.6725824,18.354837 34.4253297,19.5885326 C33.1808242,20.8189674 31.1615934,20.8189674 29.9165385,19.5885326 C27.0885165,16.79125 22.505,16.79125 19.6764286,19.5879891 C16.848956,22.3852717 16.848956,26.9195109 19.6764286,29.7167935 C22.5044505,32.5140761 27.0885165,32.5140761 29.9165385,29.7167935 C31.1632418,28.4836413 33.1808242,28.4858152 34.4253297,29.7167935 C35.6698352,30.9477717 35.6725824,32.9434239 34.4253297,34.1765761" id="Fill-1"></path>
                        <g id="Circles">
                            <path d="M49.8458791,24.8020652 C49.8442308,25.0743478 49.8354396,25.3471739 49.8277473,25.6194565 C49.8233516,25.771087 49.8151099,25.9194565 49.8041209,26.0705435 C49.7964286,26.2390217 49.7821429,26.4069565 49.7706044,26.5754348 C49.7557692,26.7705435 49.7376374,26.968913 49.7162088,27.1640217 C49.7046703,27.3020652 49.6870879,27.4363043 49.6728022,27.571087 C49.6618132,27.6716304 49.6475275,27.7727174 49.6332418,27.8705435 C49.6118132,28.0384783 49.5865385,28.206413 49.5618132,28.3781522 C49.5052198,28.7542391 49.4387363,29.1308696 49.3612637,29.5075 C49.3228022,29.6993478 49.281044,29.8873913 49.2387363,30.0786957 C49.2354396,30.0857609 49.2354396,30.0922826 49.2315934,30.0993478 C49.1898352,30.2873913 49.1442308,30.4786957 49.0958791,30.6672826 C49.0502747,30.858587 48.9980769,31.0504348 48.942033,31.2417391 C48.8903846,31.433587 48.8343407,31.6248913 48.7755495,31.8161957 C48.7233516,31.9944565 48.6645604,32.168913 48.6052198,32.3471739 C48.5953297,32.3770652 48.5843407,32.4107609 48.5744505,32.4444565 C48.5222527,32.6026087 48.4667582,32.7602174 48.407967,32.9178261 C48.3557692,33.0656522 48.3002747,33.2134783 48.2453297,33.3613043 C48.2041209,33.4721739 48.1623626,33.5830435 48.1173077,33.6933696 C48.0826923,33.7705435 48.0513736,33.8482609 48.0206044,33.9286957 C47.968956,34.0526087 47.9167582,34.1770652 47.8623626,34.3015217 C47.8068681,34.4325 47.7513736,34.5596739 47.6925824,34.6873913 C47.6271978,34.8384783 47.5585165,34.9895652 47.485989,35.1401087 C47.4167582,35.281413 47.3480769,35.4227174 47.2788462,35.5634783 C47.203022,35.7107609 47.1277473,35.8618478 47.0480769,36.0096739 C46.9590659,36.1841304 46.8623626,36.3618478 46.7662088,36.5325 C46.6700549,36.7075 46.5700549,36.8819565 46.4673077,37.0526087 C46.264011,37.3944565 46.0546703,37.733587 45.8381868,38.0651087 C45.7381868,38.2129348 45.6392857,38.3634783 45.5392857,38.5080435 C45.5118132,38.5515217 45.481044,38.5917391 45.4502747,38.6352174 C45.3574176,38.7694565 45.2645604,38.8998913 45.1722527,39.0270652 C45.1651099,39.0406522 45.1552198,39.0504348 45.1480769,39.0607609 C45.0348901,39.2151087 44.9178571,39.368913 44.8013736,39.52 C44.6815934,39.6770652 44.5618132,39.8346739 44.4343407,39.9884783 C44.3151099,40.1363043 44.1947802,40.283587 44.0711538,40.4308696 C44.0541209,40.4509783 44.0370879,40.471087 44.0195055,40.4911957 C43.9035714,40.6286957 43.7870879,40.7623913 43.6667582,40.896087 C43.2760989,41.3379348 42.8651099,41.77 42.4376374,42.1879348 C41.9035714,42.7134783 41.1574176,42.8906522 40.4777473,42.7248913 L40.4739011,42.7248913 C40.1107143,42.6384783 39.7678571,42.4515217 39.4870879,42.1705435 C39.1255495,41.8080435 38.9277473,41.3558696 38.8931319,40.8841304 C38.8425824,40.2982609 39.0502747,39.6971739 39.5057692,39.2520652 C39.9200549,38.8477174 40.3134615,38.4292391 40.6832418,38.0009783 C40.768956,37.9004348 40.8552198,37.8031522 40.9370879,37.7026087 C41.0502747,37.568913 41.1596154,37.4346739 41.2662088,37.2977174 C41.4480769,37.0732609 41.6195055,36.8417391 41.7876374,36.6107609 C41.8634615,36.5102174 41.9354396,36.406413 42.0074176,36.3026087 C42.1343407,36.1216304 42.257967,35.9406522 42.3744505,35.7558696 C42.4541209,35.6384783 42.5293956,35.5216304 42.6013736,35.4004348 C42.6909341,35.2596739 42.7771978,35.118913 42.8590659,34.9748913 C42.9453297,34.8303261 43.0277473,34.6863043 43.1068681,34.5417391 C43.1722527,34.4248913 43.2381868,34.3069565 43.2997253,34.1863043 C43.4475275,33.9145652 43.5821429,33.6428261 43.7167582,33.3640217 C43.775,33.2401087 43.8337912,33.1129348 43.8887363,32.9852174 C43.8991758,32.9651087 43.9096154,32.9417391 43.9200549,32.9178261 C43.9475275,32.8575 43.975,32.793913 43.9991758,32.7297826 C44.0096154,32.6933696 44.0233516,32.6558696 44.0409341,32.618913 C44.0585165,32.5786957 44.0788462,32.5384783 44.0997253,32.4982609 C44.103022,32.4884783 44.1063187,32.481413 44.1101648,32.4748913 C44.1722527,32.3270652 44.2304945,32.1759783 44.2898352,32.0248913 C44.3519231,31.8705435 44.4101648,31.7161957 44.4662088,31.5580435 C44.5217033,31.4004348 44.5766484,31.2455435 44.6288462,31.0879348 C44.6739011,30.9536957 44.718956,30.8156522 44.7607143,30.681413 C44.7607143,30.6748913 44.7607143,30.6716304 44.764011,30.6678261 C44.7678571,30.6444565 44.775,30.6243478 44.7815934,30.6009783 C44.7881868,30.5808696 44.7953297,30.5607609 44.8019231,30.543913 C44.8436813,30.4091304 44.8821429,30.2716304 44.9200549,30.1373913 C45.0074176,29.8248913 45.0876374,29.5091304 45.1612637,29.1895652 C45.1612637,29.1797826 45.164011,29.1694565 45.1678571,29.1596739 C45.203022,29.0047826 45.2343407,28.8498913 45.2662088,28.6922826 C45.2942308,28.5477174 45.3228022,28.3998913 45.3502747,28.2515217 C45.3711538,28.1341304 45.3931319,28.0129348 45.4107143,27.8955435 C45.4145604,27.8651087 45.4211538,27.8379348 45.4244505,27.8080435 C45.4282967,27.7944565 45.4315934,27.7776087 45.4315934,27.7640217 C45.4354396,27.7509783 45.4387363,27.7341304 45.4387363,27.7205435 C45.4634615,27.5591304 45.4881868,27.3944565 45.5068681,27.2330435 C45.5282967,27.0678261 45.5458791,26.9069565 45.564011,26.7417391 C45.5815934,26.5803261 45.596978,26.4156522 45.6074176,26.2509783 C45.6480769,25.7596739 45.6678571,25.2683696 45.6711538,24.7770652 C45.6782967,23.6357609 46.6162088,22.7161957 47.7700549,22.7232609 C48.9228022,22.7297826 49.853022,23.6613043 49.8458791,24.8020652" id="Fill-21"></path>
                            <path d="M27.1472527,2.07603261 C27.143956,2.58092391 26.9576923,3.04451087 26.6494505,3.40266304 C26.2659341,3.85103261 25.6923077,4.1336413 25.0494505,4.12983696 C24.4571429,4.12657609 23.8648352,4.14994565 23.2725275,4.19668478 C23.167033,4.20266304 23.0648352,4.20918478 22.9626374,4.22168478 C22.8302198,4.23472826 22.6967033,4.24722826 22.5642857,4.26298913 C22.3972527,4.27875 22.2340659,4.30157609 22.067033,4.3238587 C21.9274725,4.34342391 21.7879121,4.36298913 21.6483516,4.38581522 C21.6071429,4.39179348 21.5631868,4.39831522 21.5186813,4.40483696 C21.3758242,4.43092391 21.2291209,4.45375 21.082967,4.48309783 C20.9434066,4.50918478 20.8,4.53527174 20.6604396,4.56461957 C20.6159341,4.57440217 20.5681319,4.58418478 20.5241758,4.59396739 C20.4148352,4.61733696 20.3027473,4.64016304 20.193956,4.66625 C20.1318681,4.68255435 20.0741758,4.69559783 20.0131868,4.70918478 C19.8901099,4.73853261 19.7708791,4.76788043 19.6489011,4.80103261 C19.6313187,4.80429348 19.610989,4.81081522 19.5906593,4.81407609 C19.460989,4.84994565 19.328022,4.8863587 19.1950549,4.92277174 C19.1505495,4.93581522 19.1027473,4.94940217 19.0549451,4.96244565 C18.9461538,4.99559783 18.8373626,5.02494565 18.728022,5.0613587 C18.4318681,5.15375 18.1351648,5.25320652 17.8412088,5.35538043 C17.7049451,5.40483696 17.5686813,5.45483696 17.4324176,5.50755435 C17.3675824,5.53092391 17.306044,5.55429348 17.2450549,5.57711957 C17.2241758,5.58744565 17.2038462,5.59722826 17.182967,5.60755435 C17.1796703,5.60755435 17.1769231,5.61081522 17.1730769,5.61081522 L17.1697802,5.61081522 C17.1291209,5.62711957 17.0879121,5.64396739 17.0467033,5.66027174 C17.0192308,5.6738587 16.989011,5.6836413 16.9615385,5.69342391 C16.9379121,5.70320652 16.9137363,5.71353261 16.8901099,5.72331522 C16.7604396,5.77983696 16.6307692,5.8363587 16.5010989,5.89288043 C16.193956,6.02548913 15.8906593,6.16516304 15.5901099,6.31788043 C15.4774725,6.3711413 15.3686813,6.42766304 15.2587912,6.48418478 C15.2417582,6.49777174 15.2214286,6.50755435 15.2010989,6.51733696 C15.1807692,6.53092391 15.1565934,6.54451087 15.132967,6.55755435 C15.1186813,6.56407609 15.1054945,6.5711413 15.0917582,6.57766304 C15.078022,6.58418478 15.0642857,6.59070652 15.0505495,6.59722826 C15.0302198,6.60755435 15.0131868,6.61733696 14.9928571,6.62440217 C14.8934066,6.67711957 14.8010989,6.72711957 14.7054945,6.78744565 C14.5593407,6.87059783 14.4153846,6.95375 14.271978,7.03690217 C14.1291209,7.12059783 13.989011,7.20701087 13.8450549,7.29668478 C13.5648352,7.4738587 13.2884615,7.65755435 13.0148352,7.84396739 C12.9021978,7.92059783 12.7928571,8.00103261 12.6835165,8.08092391 C12.6802198,8.08418478 12.6730769,8.08798913 12.667033,8.09070652 C12.6598901,8.09777174 12.6527473,8.09777174 12.6494505,8.10103261 C12.6456044,8.10755435 12.6456044,8.10755435 12.6428571,8.10755435 L12.6395604,8.11081522 C12.4956044,8.21788043 12.3554945,8.3211413 12.2115385,8.43146739 C12.0818681,8.53146739 11.9521978,8.63527174 11.821978,8.73907609 C11.3126374,9.1461413 10.8164835,9.58744565 10.3406593,10.052663 C9.51923077,10.8553804 8.19945055,10.8477717 7.38736264,10.0352717 C6.57912088,9.22222826 6.58736264,7.91679348 7.40494505,7.11407609 C7.68956044,6.83581522 7.98021978,6.56516304 8.27417582,6.30429348 C8.39065934,6.20048913 8.50714286,6.10048913 8.62362637,6.00375 C8.81868132,5.83309783 9.01703297,5.66570652 9.21868132,5.50592391 C9.36208791,5.39233696 9.50879121,5.27875 9.65274725,5.16516304 C9.80989011,5.04451087 9.97032967,4.92440217 10.1313187,4.80755435 C10.1620879,4.78418478 10.1895604,4.76461957 10.2197802,4.74451087 C10.3467033,4.65103261 10.4730769,4.56081522 10.5994505,4.47059783 C10.6093407,4.46407609 10.6203297,4.45755435 10.6302198,4.45048913 C10.7906593,4.34070652 10.9510989,4.2336413 11.1115385,4.12711957 C11.2791209,4.01679348 11.4467033,3.91027174 11.6175824,3.80375 C11.7851648,3.69668478 11.956044,3.59342391 12.1296703,3.49070652 C12.3005495,3.39016304 12.4747253,3.29070652 12.6489011,3.19070652 C12.8230769,3.09396739 12.9972527,2.99722826 13.1747253,2.90429348 C13.3456044,2.81461957 13.5159341,2.72440217 13.6901099,2.63798913 C13.7038462,2.63146739 13.7175824,2.62494565 13.7313187,2.61842391 C13.8912088,2.53853261 14.0516484,2.46190217 14.2120879,2.38527174 C14.4203297,2.28581522 14.6285714,2.19288043 14.8368132,2.09994565 C15.0104396,2.02711957 15.1851648,1.95048913 15.3620879,1.88092391 C15.5357143,1.80755435 15.7131868,1.73798913 15.8906593,1.66842391 C16.0373626,1.61190217 16.1873626,1.55592391 16.3340659,1.50320652 C16.493956,1.44668478 16.6510989,1.39070652 16.810989,1.33744565 C16.8181319,1.33418478 16.8252747,1.33092391 16.8285714,1.33092391 C16.9923077,1.27440217 17.1554945,1.22168478 17.3192308,1.16896739 C17.3571429,1.15918478 17.3945055,1.1461413 17.4318681,1.1363587 C17.6093407,1.07983696 17.7901099,1.0238587 17.9708791,0.974402174 C18.1032967,0.934728261 18.2362637,0.898315217 18.3692308,0.862445652 C18.5054945,0.826032609 18.6423077,0.789619565 18.7785714,0.75701087 C18.8230769,0.747228261 18.867033,0.734184783 18.9076923,0.724402174 C19.043956,0.68798913 19.1802198,0.658641304 19.3164835,0.62875 C19.4565934,0.596141304 19.5928571,0.566793478 19.7324176,0.536902174 C19.9236264,0.498315217 20.1175824,0.458641304 20.3115385,0.422771739 C20.6928571,0.351032609 21.0741758,0.289619565 21.456044,0.23798913 C21.6263736,0.215706522 21.8,0.192880435 21.9697802,0.173858696 C22.0692308,0.160815217 22.1708791,0.148315217 22.2730769,0.138532609 C22.4093407,0.126032609 22.5456044,0.109728261 22.6851648,0.10048913 C22.8824176,0.0820108696 23.0835165,0.06625 23.2807692,0.05375 C23.4505495,0.04125 23.6214286,0.0320108696 23.7917582,0.026576087 C23.9445055,0.0173369565 24.093956,0.0113586957 24.2478022,0.00918478261 C24.5230769,0.000489130435 24.7989011,-0.00114130435 25.0747253,0.000489130435 C25.8296703,0.00483695652 26.4873626,0.402663043 26.8445055,0.997228261 C27.0401099,1.3113587 27.15,1.68201087 27.1472527,2.07603261" id="Fill-23"></path>
                            <path d="M10.1448352,41.9940761 C9.32340659,42.7967935 8.00307692,42.7891848 7.19153846,41.9766848 C6.91076923,41.695163 6.63659341,41.407663 6.37340659,41.1169022 C6.26846154,41.0016848 6.16736264,40.8864674 6.06901099,40.77125 C5.89703297,40.5788587 5.7278022,40.382663 5.56571429,40.182663 C5.45087912,40.0408152 5.33604396,39.8989674 5.22120879,39.7533152 C5.09978022,39.5978804 4.97835165,39.4391848 4.86021978,39.2799457 C4.84978022,39.2663587 4.83659341,39.2495109 4.82945055,39.2359239 C4.82010989,39.222337 4.80967033,39.20875 4.79923077,39.1957065 C4.39098901,38.6446196 4.29978022,37.957663 4.49428571,37.3560326 C4.62230769,36.9495109 4.8767033,36.5810326 5.25252747,36.3103804 C5.71076923,35.9804891 6.25912088,35.85875 6.77945055,35.932663 C7.2789011,36.0033152 7.75087912,36.2484239 8.09208791,36.657663 C8.11846154,36.6913587 8.14208791,36.7250543 8.16901099,36.75875 C8.17615385,36.7690761 8.18274725,36.7794022 8.18934066,36.7891848 C8.26736264,36.8940761 8.34483516,36.9957065 8.4256044,37.1005978 C8.53054945,37.2386413 8.63879121,37.3745109 8.74978022,37.509837 C8.83054945,37.6109239 8.91571429,37.7092935 8.99978022,37.8103804 C9.36461538,38.2435326 9.75307692,38.6663587 10.1624176,39.0761413 C10.9745055,39.8853804 10.9662637,41.1946196 10.1448352,41.9940761" id="Fill-26"></path>
                            <path d="M35.3396154,46.6014674 C35.1198352,46.9867935 34.7670879,47.3047283 34.3203846,47.4840761 C33.2528022,47.9150543 32.0341209,47.4058152 31.5984066,46.3503804 C31.1890659,45.3514674 31.6247802,44.2199457 32.5775275,43.7340761 C32.5841209,43.7308152 32.5912637,43.7275543 32.5978571,43.7242935 C32.6456593,43.7009239 32.6934615,43.6775543 32.7445604,43.6574457 C32.7885165,43.6411413 32.833022,43.6242935 32.8780769,43.6117935 C32.8912637,43.6047283 32.9044505,43.6014674 32.9187363,43.5949457 C32.9522527,43.5813587 32.9901648,43.5683152 33.0242308,43.5520109 C32.9967582,43.5617935 32.9698352,43.574837 32.9423626,43.5884239 C33.2560989,43.4992935 33.5791758,43.4846196 33.8885165,43.5367935 C34.572033,43.6552717 35.1852198,44.110163 35.4665385,44.7911413 C35.7176374,45.4052717 35.6522527,46.0683152 35.3396154,46.6014674" id="Fill-28"></path>
                            <path d="M35.7130769,4.63820652 C35.2850549,5.64201087 34.1449451,6.13983696 33.1163736,5.79038043 C33.096044,5.7838587 33.0757143,5.77679348 33.0553846,5.76646739 C33.0520879,5.77027174 33.0482418,5.76646739 33.0454945,5.76320652 C33.0218681,5.7561413 33.000989,5.74961957 32.9773626,5.73929348 C32.9432967,5.72516304 32.9125275,5.71211957 32.8823077,5.69472826 C32.8652747,5.68820652 32.8482418,5.6811413 32.8317582,5.67081522 C32.5224176,5.51429348 32.2685714,5.29092391 32.0834066,5.02353261 C31.6817582,4.46266304 31.5746154,3.71483696 31.8641758,3.03331522 C32.1235165,2.42570652 32.6465934,2.00125 33.2465934,1.8436413 C33.679011,1.72842391 34.1553846,1.74798913 34.5998901,1.93222826 C35.661978,2.37625 36.1614286,3.58766304 35.7130769,4.63820652" id="Fill-30"></path>
                            <path d="M17.9782967,46.2684239 C17.7195055,46.8760326 17.1997253,47.2999457 16.5997253,47.4580978 C16.1667582,47.5765761 15.6909341,47.5570109 15.2458791,47.3695109 C14.1843407,46.9254891 13.6843407,45.717337 14.1332418,44.6635326 C14.5574176,43.6629891 15.6870879,43.1716848 16.7090659,43.5042935 C16.7162088,43.5075543 16.7228022,43.5075543 16.7299451,43.5146196 C16.7739011,43.5249457 16.8217033,43.5417935 16.8656593,43.5624457 C16.9096154,43.579837 16.9535714,43.5999457 16.9942308,43.6238587 C17.0013736,43.6238587 17.007967,43.6271196 17.0112637,43.6303804 C17.0178571,43.6341848 17.025,43.6374457 17.0315934,43.64125 C17.3299451,43.7977717 17.5771978,44.0178804 17.7596154,44.277663 C18.1607143,44.8390761 18.2684066,45.5869022 17.9782967,46.2684239" id="Fill-32"></path>
                            <path d="M45.3520879,11.9488587 C45.2235165,12.3521196 44.9658242,12.7238587 44.5932967,12.9945109 C44.1356044,13.3249457 43.5867033,13.4428804 43.0669231,13.3689674 C42.5674725,13.2983152 42.0954945,13.0532065 41.7542857,12.6439674 C41.8086813,12.7216848 41.861978,12.7961413 41.9163736,12.8738587 C41.8487912,12.7792935 41.7812088,12.6847283 41.7103297,12.590163 C41.7004396,12.5765761 41.6867033,12.5629891 41.6768132,12.5461413 C41.6564835,12.5189674 41.6394505,12.492337 41.6196703,12.465163 C41.5553846,12.3771196 41.4878022,12.2890761 41.4202198,12.204837 C41.3152747,12.0657065 41.2075824,11.9309239 41.096044,11.7955978 C41.0147253,11.6939674 40.9306593,11.5961413 40.8465934,11.4945109 C40.4817582,11.0613587 40.0927473,10.6385326 39.683956,10.22875 C38.8718681,9.41625 38.8801099,8.11027174 39.7015385,7.30755435 C40.5196703,6.50809783 41.8427473,6.51570652 42.6515385,7.32548913 C43.0740659,7.74831522 43.4795604,8.18527174 43.8647253,8.63146739 C43.9526374,8.73309783 44.0405495,8.83472826 44.1279121,8.93961957 C44.3987912,9.26081522 44.661978,9.58907609 44.9081319,9.92331522 C44.9251648,9.94722826 44.9421978,9.96733696 44.9586813,9.98798913 C44.9625275,9.99451087 44.9691209,10.004837 44.9757143,10.0113587 C44.9823077,10.0146196 44.9823077,10.0184239 44.9823077,10.0216848 C44.9894505,10.0352717 44.9993407,10.0483152 45.0130769,10.0619022 C45.022967,10.0792935 45.0334066,10.092337 45.0465934,10.1097283 C45.4548352,10.6602717 45.5465934,11.3445109 45.3520879,11.9488587" id="Fill-34"></path>
                            <path d="M4.43197802,21.4029348 L4.43582418,21.4061957 L4.43197802,21.4094565 C4.42868132,21.4366304 4.42483516,21.4670652 4.42098901,21.4936957 C4.41824176,21.5072826 4.41824176,21.5241304 4.4143956,21.5377174 C4.4110989,21.5540217 4.40725275,21.5676087 4.40725275,21.5811957 C4.38252747,21.7458696 4.3578022,21.9072826 4.33967033,22.0719565 C4.31824176,22.2333696 4.30010989,22.398587 4.28252747,22.5594565 C4.21659341,23.2121739 4.17868132,23.871413 4.17483516,24.5279348 C4.16824176,25.6686957 3.22648352,26.5855435 2.07318681,26.5784783 C0.923186813,26.571413 -0.00703296703,25.6436957 0.00010989011,24.5029348 C0.00175824176,24.2306522 0.0067032967,23.9578261 0.0187912088,23.685 C0.0231868132,23.533913 0.0303296703,23.3855435 0.0418681319,23.2344565 C0.0495604396,23.0659783 0.0610989011,22.8980435 0.0753846154,22.7295652 C0.0907692308,22.535 0.108901099,22.336087 0.13032967,22.1409783 C0.141318681,22.0029348 0.159450549,21.8686957 0.173736264,21.733913 C0.184725275,21.6333696 0.198461538,21.5322826 0.212747253,21.435 C0.237472527,21.2431522 0.266043956,21.0513043 0.294615385,20.8594565 C0.400659341,20.183913 0.826483516,19.6377174 1.39956044,19.3453261 C1.77868132,19.1491304 2.22428571,19.0676087 2.68032967,19.1377174 C3.23747253,19.221413 3.7121978,19.5208696 4.02263736,19.9366304 C4.33637363,20.3420652 4.49296703,20.861087 4.43197802,21.4029348" id="Fill-36"></path>
                            <path d="M26.8703846,47.2505435 C26.8632418,48.3913043 25.9253297,49.311413 24.772033,49.3043478 C24.4962088,49.3027174 24.2209341,49.2945652 23.9451099,49.2858696 C23.7918132,49.2815217 23.6423626,49.2744565 23.4896154,49.2630435 C23.3192857,49.2554348 23.1495055,49.2407609 22.9791758,49.2298913 C22.7819231,49.2152174 22.5808242,49.1972826 22.3841209,49.1755435 C22.2445604,49.1646739 22.1082967,49.1472826 21.9725824,49.1326087 C21.8808242,49.1222826 21.7890659,49.111413 21.7006044,49.0972826 C21.5577473,49.0798913 21.4181868,49.0619565 21.2753297,49.0413043 C21.2143407,49.0304348 21.1500549,49.0201087 21.0890659,49.0097826 C20.405,48.9043478 19.8533516,48.4842391 19.5571978,47.9201087 C19.3588462,47.5451087 19.2764286,47.1038043 19.3473077,46.6532609 C19.4324725,46.0983696 19.7346703,45.6326087 20.155,45.3222826 C20.5648901,45.0152174 21.0901648,44.8565217 21.637967,44.9206522 L21.6407143,44.9206522 C21.655,44.9206522 21.6648901,44.9206522 21.6786264,44.923913 C21.6956593,44.9244565 21.715989,44.9277174 21.7324725,44.9309783 C21.7500549,44.9347826 21.7703846,44.9380435 21.7874176,44.9413043 C21.8006044,44.9413043 21.8077473,44.9451087 21.8181868,44.9451087 C21.9841209,44.9695652 22.1473077,44.9945652 22.3143407,45.0119565 C23.1368681,45.1146739 23.9670879,45.1701087 24.7973077,45.175 C25.9506044,45.1820652 26.8775275,46.1097826 26.8703846,47.2505435" id="Fill-38"></path>
                        </g>
                    </g>
                </g>
            </g>
        </g>
    </g>
</svg>