<?xml version="1.0" encoding="UTF-8"?>
<svg width="43px" height="44px" viewBox="0 0 43 44" version="1.1" xmlns="http://www.w3.org/2000/svg" xmlns:xlink="http://www.w3.org/1999/xlink">
    <!-- Generator: Sketch 51 (57462) - http://www.bohemiancoding.com/sketch -->
    <title>Logo</title>
    <desc>Created with Sketch.</desc>
    <defs>
        <polygon id="path-1" points="0.213387422 0.0571342753 9.48504539 0.0571342753 9.48504539 17.193627 0.213387422 17.193627"></polygon>
        <polygon id="path-3" points="0.15218655 0.400236295 17.5437553 0.400236295 17.5437553 9.40889216 0.15218655 9.40889216"></polygon>
    </defs>
    <g id="Main" stroke="none" stroke-width="1" fill="none" fill-rule="evenodd">
        <g id="Desktop-HD" transform="translate(-58.000000, -19.000000)">
            <g id="Hero-Section" transform="translate(57.000000, 18.000000)">
                <g id="Logo">
                    <g id="Group-39" transform="translate(1.483516, 1.467391)">
                        <path d="M28.8869853,29.405561 C24.428695,33.8937985 17.1982518,33.8937985 12.7399615,29.405561 C8.2799663,24.915607 8.28167119,17.6383117 12.7399615,13.1500741 C17.2003829,8.66012022 24.4269901,8.66012022 28.8869853,13.1500741 C29.9303786,14.2004762 29.9325098,15.9035178 28.8869853,16.9560653 C27.8435919,18.0068964 26.1502088,18.0068964 25.1063892,16.9560653 C22.7353119,14.5690609 18.8916349,14.5690609 16.5205575,16.9560653 C14.1494802,19.3434987 14.1494802,23.2125655 16.5205575,25.5999989 C18.8916349,27.9865742 22.7353119,27.9865742 25.1063892,25.5999989 C26.1519137,24.5474514 27.8435919,24.5495968 28.8869853,25.5999989 C29.9303786,26.650401 29.9325098,28.3534425 28.8869853,29.405561" id="Fill-1" fill="#4D56A5"></path>
                        <path d="M14.4611593,5.38043478 C14.4376593,5.39343478 14.4141593,5.40393478 14.3911593,5.41393478 C14.3741593,5.42043478 14.3571593,5.42743478 14.3406593,5.43093478 C14.3806593,5.41393478 14.4211593,5.39693478 14.4611593,5.38043478" id="Fill-3" fill="#416CB4"></path>
                        <path d="M14.5851593,4.89130435 C14.5016593,4.92130435 14.4246593,4.95830435 14.3406593,4.99130435 C14.3611593,4.98180435 14.3811593,4.97130435 14.4011593,4.96130435 C14.4611593,4.93830435 14.5216593,4.91480435 14.5851593,4.89130435" id="Fill-5" fill="#416CB4"></path>
                        <path d="M14.4611593,5.38043478 C14.4376593,5.39343478 14.4141593,5.40393478 14.3911593,5.41393478 C14.3741593,5.42043478 14.3571593,5.42743478 14.3406593,5.43093478 C14.3806593,5.41393478 14.4211593,5.39693478 14.4611593,5.38043478" id="Fill-7" fill="#416CB4"></path>
                        <path d="M14.4611593,5.38043478 C14.4376593,5.39343478 14.4141593,5.40393478 14.3911593,5.41393478 C14.3741593,5.42043478 14.3571593,5.42743478 14.3406593,5.43093478 C14.3806593,5.41393478 14.4211593,5.39693478 14.4611593,5.38043478" id="Fill-9" fill="#416CB4"></path>
                        <path d="M14.5851593,4.89130435 C14.5016593,4.92130435 14.4246593,4.95830435 14.3406593,4.99130435 C14.3611593,4.98180435 14.3811593,4.97130435 14.4011593,4.96130435 C14.4611593,4.93830435 14.5216593,4.91480435 14.5851593,4.89130435" id="Fill-11" fill="#416CB4"></path>
                        <path d="M14.4611593,5.38043478 C14.4376593,5.39343478 14.4141593,5.40393478 14.3911593,5.41393478 C14.3741593,5.42043478 14.3571593,5.42743478 14.3406593,5.43093478 C14.3806593,5.41393478 14.4211593,5.39693478 14.4611593,5.38043478" id="Fill-13" fill="#416CB4"></path>
                        <path d="M14.5851593,4.89130435 C14.5016593,4.92130435 14.4246593,4.95830435 14.3406593,4.99130435 C14.3611593,4.98180435 14.3811593,4.97130435 14.4011593,4.96130435 C14.4611593,4.93830435 14.5216593,4.91480435 14.5851593,4.89130435" id="Fill-15" fill="#416CB4"></path>
                        <path d="M14.4611593,5.38043478 C14.4376593,5.39343478 14.4141593,5.40393478 14.3911593,5.41393478 C14.3741593,5.42043478 14.3571593,5.42743478 14.3406593,5.43093478 C14.3806593,5.41393478 14.4211593,5.39693478 14.4611593,5.38043478" id="Fill-17" fill="#416CB4"></path>
                        <g id="Group-21" transform="translate(32.637363, 19.565217)">
                            <mask id="mask-2" fill="white">
                                <use xlink:href="#path-1"></use>
                            </mask>
                            <g id="Clip-20"></g>
                            <path d="M9.48504539,1.83306522 C9.48375538,2.06584358 9.47644529,2.29905143 9.46913521,2.5318298 C9.46569517,2.66110339 9.4588151,2.78780011 9.44935499,2.91664422 C9.44290492,3.06009067 9.43086479,3.2039666 9.42140468,3.34784252 C9.40850454,3.51448091 9.39345437,3.68412566 9.37496417,3.85033457 C9.36550406,3.96844168 9.35045389,4.08311294 9.33841376,4.19821368 C9.32895366,4.28453924 9.31691352,4.37043531 9.30530339,4.45418399 C9.28681319,4.59763043 9.26574295,4.74107688 9.24467272,4.88752969 C9.19694219,5.2092105 9.14018156,5.5308913 9.07482083,5.85214263 C9.04214047,6.01620414 9.00688008,6.1768298 8.97118968,6.34046182 C8.96817965,6.34647455 8.96817965,6.35205779 8.96559962,6.35764104 C8.92990922,6.51869618 8.8916388,6.68232821 8.84992833,6.84295387 C8.81165791,7.0065859 8.76779742,7.17021792 8.72049689,7.33384995 C8.6762064,7.49705249 8.62933588,7.66068452 8.57945533,7.82431654 C8.53559484,7.97678208 8.48528428,8.12581177 8.43583373,8.27784783 C8.42680363,8.30361665 8.41820354,8.33239183 8.40917344,8.36073754 C8.36531295,8.49602386 8.31844243,8.63045122 8.26856187,8.76573754 C8.22470139,8.89200477 8.17783086,9.01784252 8.13096034,9.14410976 C8.09612996,9.23859544 8.06086957,9.3335106 8.02302914,9.42842577 C7.99378882,9.49413627 7.96712852,9.55984677 7.94089823,9.62856363 C7.89703774,9.73464528 7.85360726,9.84115642 7.80673674,9.94723807 C7.75986622,10.058903 7.7129957,10.167991 7.66354515,10.2766495 C7.60807453,10.4059231 7.55002389,10.5351967 7.48853321,10.6640408 C7.43048256,10.7842953 7.37200191,10.9045498 7.31352126,11.0248043 C7.24945055,11.1510716 7.18537984,11.2799157 7.1187291,11.4061829 C7.04261825,11.5552126 6.96134735,11.7068192 6.87964644,11.853272 C6.79837554,12.0023017 6.7140946,12.1509019 6.62680363,12.2973547 C6.45523172,12.5894014 6.27763975,12.8788712 6.09488772,13.1623282 C6.01017678,13.288166 5.92632585,13.4174396 5.84204491,13.5402709 C5.81882465,13.5776357 5.79259436,13.6119942 5.76636407,13.6489295 C5.6881032,13.7631713 5.60984233,13.8752656 5.53115146,13.9839242 C5.5255614,13.9950907 5.51653129,14.0041098 5.51094123,14.0122699 C5.41505017,14.1441204 5.31657907,14.2759708 5.21810798,14.4043855 C5.11619685,14.5392423 5.01471572,14.6732402 4.90721452,14.8050907 C4.8061634,14.9309284 4.70425227,15.0567662 4.60019111,15.1826039 L4.55676063,15.2341416 C4.45828954,15.3518192 4.35938844,15.466061 4.25790731,15.5803028 C3.92766364,15.957816 3.58021978,16.3263102 3.21815576,16.6836379 C2.76622074,17.1324449 2.13497372,17.2840514 1.56005733,17.1423229 L1.55747731,17.1423229 C1.25002389,17.0684523 0.960200669,16.9086856 0.722838032,16.668606 C0.41667463,16.3589507 0.248972766,15.9728478 0.219732441,15.5699952 C0.176731964,15.0696506 0.352603918,14.5564215 0.737888199,14.1759019 C1.08834209,13.8305997 1.4215958,13.473272 1.73463927,13.1069252 C1.80688008,13.0214586 1.87955088,12.9381394 1.94921166,12.8522434 C2.04467272,12.7384311 2.13755375,12.6237598 2.22742475,12.5065117 C2.38093645,12.3145339 2.52627807,12.116973 2.66817965,11.919412 C2.73225036,11.8339454 2.79331104,11.7450429 2.85437172,11.6561405 C2.96187291,11.5019571 3.06636407,11.3469146 3.16483516,11.1897248 C3.23191591,11.0896559 3.29555662,10.9891575 3.3570473,10.8860822 C3.43229814,10.7658277 3.50496894,10.6455732 3.57505972,10.5223123 C3.64773053,10.3990514 3.7173913,10.2757906 3.78447205,10.1525297 C3.83994267,10.0524608 3.89498328,9.95196235 3.94744386,9.84888706 C4.07257525,9.61696766 4.18609651,9.38461877 4.30004778,9.14668664 C4.34949833,9.04060498 4.39894888,8.93151697 4.4458194,8.82285843 C4.45441949,8.80567922 4.46344959,8.78549364 4.47204969,8.76573754 C4.49526995,8.71377041 4.51892021,8.65965589 4.53956044,8.60511188 C4.54816054,8.57333033 4.55977066,8.54197826 4.57439083,8.51019671 C4.58901099,8.47583828 4.60664118,8.44147985 4.62384138,8.40712142 C4.62685141,8.39853181 4.62986144,8.39251909 4.63287148,8.38693584 C4.68533206,8.26109809 4.73521261,8.1318245 4.78466316,8.0025509 C4.83712375,7.8711299 4.8870043,7.73884995 4.93387482,7.60442259 C4.98074534,7.46913627 5.02761586,7.33685631 5.07147635,7.20242895 C5.10974677,7.08732821 5.1480172,6.97008006 5.18327759,6.85497932 C5.18327759,6.84982556 5.18327759,6.84681919 5.18585762,6.84381283 C5.18886765,6.82362725 5.19488772,6.80644804 5.20090779,6.78626246 C5.20649785,6.76908324 5.21251792,6.75190403 5.21853798,6.73773118 C5.25379838,6.62263043 5.28604873,6.50538229 5.31829909,6.39028155 C5.39182991,6.12314475 5.45977066,5.85343107 5.52212136,5.58114051 C5.52212136,5.57212142 5.52513139,5.56396129 5.52771142,5.55494221 C5.55738175,5.42266225 5.58404204,5.29081177 5.61070234,5.15595493 C5.6343526,5.03226458 5.65843287,4.90599735 5.68208313,4.77973012 C5.70014333,4.67923171 5.71777353,4.57615642 5.7328237,4.47522853 C5.73583373,4.4494597 5.7418538,4.42669724 5.74486383,4.40092842 C5.74787387,4.38933245 5.7508839,4.37473012 5.7508839,4.36356363 C5.75389393,4.35196766 5.75690397,4.33736532 5.75690397,4.32619883 C5.7779742,4.18790615 5.79904443,4.04746607 5.8140946,3.90960286 C5.8321548,3.7687333 5.84763497,3.6308701 5.86268514,3.49000053 C5.87773531,3.35213733 5.89020545,3.21126776 5.89966555,3.07082768 C5.93406593,2.65079586 5.95083612,2.23162301 5.95341615,1.8115912 C5.95943622,0.837529692 6.75279503,0.0515805938 7.72847587,0.0571638388 C8.70415671,0.0636060445 9.49106546,0.858574231 9.48504539,1.83306522" id="Fill-19" fill="#FBC056" mask="url(#mask-2)"></path>
                        </g>
                        <g id="Group-24" transform="translate(5.439560, 0.000000)">
                            <mask id="mask-4" fill="white">
                                <use xlink:href="#path-3"></use>
                            </mask>
                            <g id="Clip-23"></g>
                            <path d="M17.5437186,2.15638469 C17.5411134,2.58341682 17.381762,2.97557183 17.1182026,3.2788327 C16.7903817,3.65780246 16.3006041,3.89726371 15.7513412,3.89386106 C15.2459325,3.89088374 14.7396553,3.91044896 14.2338124,3.95043006 C14.1434988,3.9551087 14.0566588,3.960638 13.9693846,3.9716966 C13.8556242,3.98232987 13.742298,3.99296314 13.6289719,4.00657372 C13.4865543,4.01975898 13.3467419,4.03889887 13.2043243,4.05803875 C13.0849193,4.07462665 12.9659485,4.09078922 12.8465436,4.11035444 C12.8118076,4.11545841 12.7740322,4.12098771 12.7358226,4.12651701 C12.6138124,4.14863422 12.4887628,4.1677741 12.3637132,4.19244329 C12.2443082,4.21456049 12.1218638,4.23667769 12.0028931,4.26134688 C11.9646835,4.2698535 11.9243029,4.27793478 11.8865275,4.2864414 C11.7931745,4.30600662 11.6972163,4.32557183 11.6038633,4.34726371 C11.5517593,4.36172495 11.5022605,4.37235822 11.4497223,4.38341682 C11.3450801,4.40851134 11.2430432,4.43360586 11.138401,4.46167769 C11.1236382,4.46422968 11.1062702,4.46975898 11.0889022,4.47231096 C10.9781812,4.50336011 10.864855,4.53398393 10.7510946,4.56460775 C10.7133192,4.57566635 10.6725044,4.58672495 10.6316896,4.59778355 C10.5387708,4.62585539 10.4454179,4.65094991 10.3524991,4.68157372 C10.0989263,4.75983459 9.84578772,4.84362476 9.59482016,4.93039225 C9.47845457,4.9725 9.36208898,5.01460775 9.2452892,5.05926749 C9.19014581,5.0788327 9.13760761,5.09882325 9.08550362,5.11838847 C9.06770142,5.12646975 9.05033342,5.1354017 9.03253122,5.14348299 C9.02992603,5.14348299 9.02688663,5.1464603 9.02384723,5.1464603 L9.02124203,5.1464603 C8.98607183,5.16007089 8.95090163,5.17453214 8.91616564,5.18856805 C8.89315304,5.19962665 8.86666685,5.20813327 8.84322005,5.21621456 C8.82324685,5.2251465 8.80283945,5.23322779 8.78199786,5.2417344 C8.67127687,5.28937146 8.56099008,5.33743384 8.4498349,5.38507089 C8.18757813,5.49693289 7.92836076,5.61560019 7.67174859,5.74490076 C7.5753562,5.78998582 7.48243742,5.83762287 7.38908443,5.88568526 C7.37432163,5.89674386 7.35695363,5.90482514 7.33958563,5.91375709 C7.32178344,5.92481569 7.30137604,5.93629962 7.28096864,5.94735822 C7.26924524,5.95331285 7.25795604,5.95841682 7.24623265,5.96437146 C7.23450925,5.96990076 7.22278585,5.97543006 7.21106245,5.98095936 C7.19369445,5.9898913 7.17893165,5.99797259 7.16156366,6.00392722 C7.07689467,6.04858696 6.99830448,6.09112004 6.91667489,6.1417344 C6.7911911,6.21191399 6.66874672,6.2825189 6.54630233,6.35312382 C6.42385795,6.4233034 6.30401876,6.49688563 6.18157438,6.57301985 C5.94233021,6.72231096 5.70569124,6.87798204 5.47252586,7.03577977 C5.37613348,7.10043006 5.28278049,7.16805766 5.1889933,7.23611059 C5.1863881,7.23866257 5.1803093,7.24163989 5.1746647,7.2446172 C5.1690201,7.25057183 5.1629413,7.25057183 5.1599019,7.25269849 C5.1572967,7.25865312 5.1572967,7.25865312 5.1542573,7.25865312 L5.1512179,7.26163043 C5.02877352,7.35180057 4.90893433,7.43941871 4.78648995,7.53299149 C4.67533476,7.61763233 4.56417958,7.70482514 4.45345859,7.79244329 C4.01839024,8.13738658 3.5946111,8.5104017 3.18776575,8.9038327 C2.48609863,9.58308601 1.35891557,9.57628072 0.665498258,8.88894612 C-0.0248796569,8.20161153 -0.0179324578,7.09702741 0.680695256,6.41819943 C0.923413026,6.18299149 1.1717754,5.95416352 1.42317716,5.73341682 C1.52260895,5.64537335 1.62204074,5.56073251 1.72147253,5.479069 C1.88777111,5.33488185 2.05710909,5.19324669 2.22948646,5.05756616 C2.35236505,4.96186673 2.47784883,4.86531664 2.60029322,4.7696172 C2.7348952,4.66753781 2.87166819,4.56588374 3.00887537,4.46720699 C3.03536157,4.44764178 3.05880836,4.43062854 3.08486036,4.41361531 C3.19297615,4.33450378 3.30109193,4.25794423 3.40920772,4.18223535 C3.41789172,4.17628072 3.42657572,4.17075142 3.43525972,4.16522212 C3.5724669,4.07207467 3.70967408,3.98190454 3.84688127,3.89130907 C3.98973305,3.79816163 4.13258483,3.70799149 4.27891021,3.61824669 C4.42176199,3.52765123 4.56765318,3.44045841 4.71658376,3.35284026 C4.86204074,3.26819943 5.01097132,3.1835586 5.1599019,3.0993431 C5.30839828,3.01725425 5.45732887,2.93601607 5.60886465,2.85690454 C5.75432163,2.78119565 5.90021281,2.70506144 6.04870919,2.63190454 C6.06043259,2.62594991 6.07215599,2.62084594 6.08387939,2.6148913 C6.22108657,2.54768904 6.35785956,2.48303875 6.49506674,2.41796314 C6.67265452,2.33374764 6.85067649,2.25506144 7.02826427,2.17680057 C7.17719485,2.11470227 7.32569124,2.05005198 7.47679282,1.99135633 C7.6257234,1.92968336 7.77725918,1.87056238 7.92836076,1.8114414 C8.05384455,1.76422968 8.18193353,1.71659263 8.30741731,1.67150756 C8.4441903,1.62387051 8.57835808,1.57665879 8.71513106,1.53157372 C8.72077566,1.52859641 8.72685446,1.52646975 8.72945966,1.52646975 C8.86927205,1.47840737 9.00908443,1.43374764 9.14933101,1.3890879 C9.18102761,1.38100662 9.2131584,1.36952268 9.2452892,1.3614414 C9.39639078,1.31380435 9.55096596,1.2661673 9.70510694,1.22448488 C9.81843313,1.19088374 9.93219351,1.16025992 10.0455197,1.12963611 C10.1623195,1.09901229 10.2786851,1.06838847 10.3950507,1.04074197 C10.4328261,1.03223535 10.4706014,1.02117675 10.5057716,1.01309546 C10.6221372,0.982046314 10.7385028,0.957377127 10.8548684,0.932282609 C10.9742734,0.904636106 11.090639,0.879541588 11.210044,0.85444707 C11.3728689,0.821271267 11.5387333,0.788095463 11.7045977,0.757896975 C12.0306819,0.697074669 12.3563318,0.64518431 12.682416,0.601800567 C12.827873,0.582660681 12.9759351,0.563520794 13.1213921,0.547358223 C13.2056269,0.536299622 13.2929011,0.525666352 13.3801753,0.517159735 C13.4965409,0.506526465 13.6129065,0.49334121 13.7323114,0.485259924 C13.900781,0.469097353 14.07229,0.456337429 14.2411938,0.445704159 C14.3866508,0.435070888 14.5316735,0.427840265 14.6771305,0.422736295 C14.8078247,0.414655009 14.9359137,0.409976371 15.0666079,0.407849716 C15.3019443,0.400619093 15.5372806,0.3993431 15.7730512,0.400619093 C16.4182723,0.40444707 16.9796928,0.740883743 17.2849354,1.24362476 C17.4516682,1.50945652 17.5458896,1.82335066 17.5437186,2.15638469" id="Fill-22" fill="#FBC056" mask="url(#mask-4)"></path>
                        </g>
                        <path d="M8.86495622,36.1600914 C8.1634741,36.8657474 7.03615413,36.8586776 6.34291963,36.1446261 C6.10330445,35.8976244 5.86933238,35.6448785 5.64447611,35.3890395 C5.55462042,35.2878528 5.46823741,35.1871079 5.38445891,35.0854793 C5.23773802,34.9166874 5.09318756,34.7439187 4.9547143,34.5684989 C4.85661098,34.4434515 4.75894175,34.318846 4.66040435,34.1911475 C4.557092,34.0541698 4.45291149,33.9149828 4.35220366,33.7753539 C4.34352195,33.7629817 4.33223573,33.7484002 4.32615853,33.7364699 C4.31747682,33.7245396 4.30879511,33.7126093 4.30054749,33.7011208 C3.95154277,33.2168384 3.87384147,32.6128109 4.03966212,32.0843421 C4.14948575,31.7273164 4.36652848,31.4029886 4.68731765,31.165266 C5.07842865,30.8749617 5.54680688,30.7689144 5.99087632,30.8334265 C6.41801642,30.8952874 6.82041365,31.1104749 7.111685,31.4705937 C7.13469153,31.5001986 7.15509355,31.5298034 7.17810008,31.5594083 C7.18374319,31.5682455 7.18982039,31.5775247 7.1954635,31.5859201 C7.26187858,31.6782696 7.32785957,31.767526 7.39731324,31.8598755 C7.48630077,31.9813879 7.57876097,32.1002492 7.67382569,32.2191105 C7.74327937,32.308367 7.81533755,32.3949722 7.88739574,32.4837868 C8.19906911,32.8642313 8.53071041,33.2362804 8.88014922,33.5959573 C9.57338371,34.3073576 9.56643835,35.4575283 8.86495622,36.1600914" id="Fill-25" fill="#FBC056"></path>
                        <path d="M29.9319318,39.7392166 C29.7494803,40.059317 29.4574737,40.3223161 29.087093,40.470696 C28.201803,40.8278913 27.1917887,40.4065092 26.830678,39.530818 C26.4914784,38.7034752 26.852589,37.7652644 27.6422289,37.3626382 C27.6477067,37.3597206 27.6531844,37.356803 27.6590836,37.3543022 C27.698692,37.3347127 27.7383004,37.3159569 27.7808583,37.299285 C27.8175172,37.2855307 27.854176,37.2717763 27.8908349,37.2609396 C27.9022118,37.2555213 27.9135886,37.2526037 27.9249655,37.2471853 C27.953197,37.2359318 27.9839568,37.225095 28.0126096,37.2113407 C27.9898559,37.2196767 27.9671021,37.2305134 27.9447697,37.2417669 C28.2043312,37.1679938 28.4727413,37.1554899 28.7289319,37.1988368 C29.2952478,37.297201 29.8034152,37.6739858 30.0368519,38.2387462 C30.2454281,38.7480725 30.1910719,39.2969946 29.9319318,39.7392166" id="Fill-27" fill="#FBC056"></path>
                        <path d="M30.0282599,4.33280682 C29.6736095,5.16482724 28.7297005,5.57791955 27.8771918,5.28821304 C27.8603438,5.28237722 27.8434958,5.27695825 27.8262266,5.26820453 C27.8236994,5.27112244 27.820751,5.26820453 27.8178026,5.26528662 C27.7984274,5.25986765 27.7815794,5.25403184 27.761783,5.24527812 C27.7335626,5.23402333 27.7082906,5.22318539 27.6830186,5.2090127 C27.6686978,5.20317688 27.6547982,5.19734107 27.6408986,5.18900419 C27.3852302,5.05894889 27.1746302,4.8738702 27.0208923,4.65252609 C26.6881443,4.18691145 26.5988499,3.56706457 26.8393551,3.00265793 C27.0537458,2.49869366 27.4875818,2.1468774 27.9841765,2.01557157 C28.3430389,1.92053116 28.7377033,1.93678808 29.1062532,2.08935294 C29.9861399,2.45742611 30.4001795,3.46160307 30.0282599,4.33280682" id="Fill-29" fill="#FBC056"></path>
                        <path d="M15.193673,39.5502588 C14.9790881,40.0540631 14.5478102,40.4057677 14.0503441,40.5361984 C13.6915783,40.634959 13.2965564,40.6182905 12.9276727,40.4624404 C12.046989,40.0949008 11.6325744,39.093543 12.0048308,38.2205323 C12.3568514,37.3908596 13.2936054,36.9841491 14.1409841,37.2595955 C14.1468862,37.2625124 14.1523668,37.2625124 14.1578474,37.2679297 C14.194525,37.2766806 14.2341536,37.2908488 14.2708312,37.3075173 C14.3070872,37.3216855 14.3437648,37.3387706 14.3774913,37.3583561 C14.3833934,37.3583561 14.388874,37.3612731 14.3918251,37.3641901 C14.3973056,37.367107 14.4027862,37.370024 14.4086883,37.3725243 C14.6561567,37.5025383 14.8606237,37.6850579 15.0119714,37.9004978 C15.3450208,38.3655479 15.4339744,38.9856147 15.193673,39.5502588" id="Fill-31" fill="#FBC056"></path>
                        <path d="M38.487792,10.4723094 C38.3783995,10.8267891 38.1583123,11.1534232 37.8401192,11.3912164 C37.4489977,11.6816069 36.980607,11.7854756 36.5365257,11.7205024 C36.1098083,11.6590652 35.7069662,11.4429297 35.415687,11.0835881 C35.4617013,11.1516552 35.5081497,11.2175124 35.554164,11.2855796 C35.4964291,11.2020426 35.4386942,11.1189476 35.3783547,11.0358526 C35.3696728,11.0239188 35.3583862,11.0119849 35.3497043,10.9969571 C35.3319063,10.9735314 35.3175811,10.9496637 35.3006513,10.9257959 C35.2459551,10.8488889 35.1882202,10.7715398 35.1304853,10.6972847 C35.0410613,10.5748522 34.9490327,10.4563976 34.8535314,10.337059 C34.7845099,10.2482181 34.7124498,10.1620291 34.6403897,10.0727462 C34.328708,9.69174675 33.9966237,9.3204712 33.6471756,8.96024552 C32.9539226,8.24598209 32.9613022,7.09767986 33.662369,6.39225632 C34.3612653,5.68948475 35.491654,5.69611467 36.1818684,6.40772614 C36.542603,6.77988567 36.8890125,7.16353707 37.2180581,7.55602836 C37.2931569,7.64531129 37.3678216,7.73459422 37.4429203,7.82697111 C37.67386,8.10896373 37.8987223,8.39758627 38.1088252,8.69195474 C38.1235845,8.71272849 38.1379097,8.73040828 38.1522349,8.74853006 C38.1552736,8.75427599 38.1609169,8.76311589 38.1665601,8.76886182 C38.1726375,8.77195578 38.1726375,8.77504974 38.1722034,8.77814371 C38.1782808,8.78963557 38.1869627,8.80201142 38.1982492,8.81350328 C38.2073653,8.8285311 38.2156131,8.84046496 38.2273337,8.85549278 C38.5759137,9.33947697 38.6536171,9.94058976 38.487792,10.4723094" id="Fill-33" fill="#FBC056"></path>
                        <path d="M3.94447685,18.5812622 L3.94764362,18.5842598 L3.94447685,18.5868292 C3.94131008,18.6095258 3.93814331,18.6356482 3.93497653,18.6587729 C3.93180976,18.669907 3.93180976,18.6840388 3.92864299,18.6960294 C3.92547622,18.7101612 3.92230945,18.7212954 3.92230945,18.7328578 C3.90014204,18.8733192 3.87842703,19.010783 3.86214078,19.1512444 C3.84314015,19.2882799 3.82685389,19.4287414 3.81102003,19.5666334 C3.75311334,20.1224838 3.71873124,20.6839013 3.71556447,21.2427494 C3.70923093,22.2144171 2.87139353,22.9950914 1.844907,22.9890961 C0.821587241,22.9831008 -0.00629744492,22.1934335 3.60991263e-05,21.2213376 C0.00139328714,20.9892336 0.00591724717,20.7571297 0.0163223552,20.5250257 C0.0203939193,20.3956984 0.0271798593,20.269797 0.0371325714,20.1413262 C0.0439185114,19.9978671 0.0543236195,19.854408 0.0674431036,19.7113772 C0.0801101917,19.5452216 0.0968488438,19.3756401 0.115849476,19.2099127 C0.125802188,19.0921478 0.141636048,18.9778088 0.154303136,18.8630415 C0.164255848,18.7773943 0.17647054,18.6913189 0.189590024,18.6082411 C0.211757429,18.4450831 0.237091605,18.2819252 0.261973385,18.1187672 C0.35652415,17.5427897 0.735179604,17.0777253 1.2454823,16.8284919 C1.58251732,16.6614798 1.97972101,16.5916774 2.38506783,16.6516304 C2.88134624,16.7231458 3.30343171,16.9779463 3.57984567,17.3320975 C3.8594264,17.6776841 3.99876437,18.1200519 3.94447685,18.5812622" id="Fill-35" fill="#FBC056"></path>
                        <path d="M22.7472181,40.7268202 C22.7411567,41.742342 21.9423565,42.5605752 20.9599837,42.5543121 C20.7253226,42.55297 20.4906615,42.5453648 20.2560004,42.5382069 C20.1252483,42.5341806 19.9979598,42.5274701 19.8676406,42.5176281 C19.722601,42.5104702 19.5779944,42.4979439 19.4329548,42.4881019 C19.2649686,42.4746809 19.0939517,42.4590231 18.9259656,42.4397863 C18.8073362,42.4303916 18.6917374,42.4142864 18.5757057,42.4017602 C18.497774,42.3923655 18.4194093,42.3825234 18.3440753,42.3704445 C18.2224152,42.3547867 18.1037858,42.3391289 17.9821257,42.3203395 C17.9301712,42.3109448 17.8751861,42.3015501 17.8227986,42.2921554 C17.2409084,42.1986558 16.7707203,41.8246574 16.518741,41.3227123 C16.3498889,40.9894243 16.2797504,40.5966366 16.339931,40.1957962 C16.4122343,39.702351 16.669842,39.287195 17.027895,39.0111699 C17.3772889,38.7382764 17.8240975,38.5969086 18.290822,38.6537241 L18.2934197,38.6537241 C18.3051094,38.6537241 18.3137685,38.6537241 18.3254583,38.6568557 C18.3397458,38.657303 18.3570639,38.6604346 18.3717844,38.6635662 C18.3860719,38.6666977 18.40339,38.6693819 18.4176775,38.6725135 C18.4293673,38.6725135 18.4354286,38.6756451 18.4440877,38.6756451 C18.5860966,38.697566 18.7246419,38.719487 18.8666509,38.7355922 C19.5676035,38.8264076 20.2746175,38.8756179 20.9816314,38.8805389 C21.9640042,38.886802 22.7532794,39.7117457 22.7472181,40.7268202" id="Fill-37" fill="#FBC056"></path>
                    </g>
                </g>
            </g>
        </g>
    </g>
</svg>